<svg xmlns="http://www.w3.org/2000/svg" width="31.128" height="47.313" viewBox="0 0 31.128 47.313">
  <g id="clear-icon" transform="translate(2 0)">
    <g id="icon" transform="translate(-2)">
      <path id="パス_53" data-name="パス 53" d="M101.194,36.745l-2.237-2.238a1.756,1.756,0,0,0-2.489,0L84.736,46.306l-.024.024L80.385,42a1.758,1.758,0,0,0-2.48,0l-2.242,2.243a1.756,1.756,0,0,0,0,2.484l7.808,7.807a1.757,1.757,0,0,0,2.482,0L101.2,39.226a1.756,1.756,0,0,0,0-2.482ZM84.713,53.576a.283.283,0,0,1-.2-.084L76.7,45.685a.285.285,0,0,1,0-.4l2.237-2.238a.286.286,0,0,1,.4,0l4.819,4.82a.776.776,0,0,0,1.1,0L97.513,35.547a.285.285,0,0,1,.4,0l2.237,2.237a.286.286,0,0,1,0,.4L84.915,53.493A.284.284,0,0,1,84.713,53.576Z" transform="translate(-70.58 -33.992)" fill="#fff"/>
      <path id="パス_54" data-name="パス 54" d="M26.384,53.978v-.014l-1.941,1.946V68.016a.461.461,0,0,1-.461.461H2.407a.462.462,0,0,1-.466-.461V46.441a.465.465,0,0,1,.466-.461H22.9l1.22-1.22.7-.692h-.007l.009-.009a1.706,1.706,0,0,0-.272-.019H1.83a1.794,1.794,0,0,0-1.291.539A1.815,1.815,0,0,0,0,45.869v22.72a1.831,1.831,0,0,0,1.83,1.834H24.554a1.859,1.859,0,0,0,1.3-.534,1.821,1.821,0,0,0,.534-1.3V60.025l.007-6.054Z" transform="translate(0 -43.428)" fill="#fff"/>
    </g>
    <text id="OK" transform="translate(13 43.313)" fill="#e7f6f2" font-size="14" font-family="Roboto-Regular, Roboto"><tspan x="-9.201" y="0">OK</tspan></text>
  </g>
</svg>
