<svg id="delete-icon" xmlns="http://www.w3.org/2000/svg" width="18.839" height="19.526" viewBox="0 0 18.839 19.526">
  <path id="パス_44" data-name="パス 44" d="M25.535,2.3h-3.29L21.928.938A1.208,1.208,0,0,0,20.747,0H16.115a1.207,1.207,0,0,0-1.181.938L14.617,2.3H11.328A2.319,2.319,0,0,0,9.012,4.62V5.827a1.366,1.366,0,0,0,1.365,1.364h.195l1.268,11.072a1.4,1.4,0,0,0,1.394,1.263h10.4a1.384,1.384,0,0,0,1.392-1.258l1.27-11.077h.195a1.366,1.366,0,0,0,1.365-1.364V4.62A2.319,2.319,0,0,0,25.535,2.3ZM16.115.259A.949.949,0,0,0,15.187,1l-.112.48h0L15.186,1A.949.949,0,0,1,16.115.259ZM24.757,6.95,23.493,17.974H13.369L12.106,6.95Zm-3.7-4.386H15.8l.314-1.351h4.632ZM21.455.572A.946.946,0,0,0,21,.3a.946.946,0,0,1,.458.277ZM10.564,4.62a.764.764,0,0,1,.764-.764H25.535a.764.764,0,0,1,.764.764V5.639H10.564Z" transform="translate(-9.012)" fill="#fff"/>
  <path id="パス_45" data-name="パス 45" d="M155.585,248.8h.437a.421.421,0,0,0,.421-.421v-4.746a.421.421,0,0,0-.421-.421h-.437a.421.421,0,0,0-.421.421v4.746A.421.421,0,0,0,155.585,248.8Z" transform="translate(-149.59 -233.932)" fill="#fff"/>
  <path id="パス_46" data-name="パス 46" d="M239.648,248.8h.436a.421.421,0,0,0,.421-.421v-4.746a.421.421,0,0,0-.421-.421h-.436a.421.421,0,0,0-.421.421v4.746A.421.421,0,0,0,239.648,248.8Z" transform="translate(-230.447 -233.932)" fill="#fff"/>
  <path id="パス_47" data-name="パス 47" d="M323.715,248.8h.437a.421.421,0,0,0,.421-.421v-4.746a.421.421,0,0,0-.421-.421h-.437a.421.421,0,0,0-.421.421v4.746A.421.421,0,0,0,323.715,248.8Z" transform="translate(-311.308 -233.932)" fill="#fff"/>
</svg>
