<svg id="add" xmlns="http://www.w3.org/2000/svg" width="16.107" height="19.625" viewBox="0 0 16.107 19.625">
  <path id="パス_48" data-name="パス 48" d="M143.99,194.531a4.294,4.294,0,1,0,4.3-4.288A4.294,4.294,0,0,0,143.99,194.531Zm3.576,1.854v-1a.131.131,0,0,0-.131-.132l-1.169,0a.131.131,0,0,1-.131-.132l0-1.169a.131.131,0,0,1,.132-.131l1.169,0a.131.131,0,0,0,.132-.131v-1a.3.3,0,0,1,.3-.3h.835a.3.3,0,0,1,.3.3v1a.132.132,0,0,0,.131.132h1a.3.3,0,0,1,.3.3v.835a.3.3,0,0,1-.3.3h-1a.131.131,0,0,0-.132.131v1a.3.3,0,0,1-.3.3h-.835A.3.3,0,0,1,147.566,196.385Z" transform="translate(-140.23 -182.951)" fill="#fff"/>
  <path id="パス_49" data-name="パス 49" d="M62,5.421a.735.735,0,0,0-.013-.133s0-.009,0-.014a.742.742,0,0,0-.035-.111c-.005-.013-.011-.026-.017-.039a.724.724,0,0,0-.044-.081c-.007-.012-.014-.023-.022-.034a.735.735,0,0,0-.077-.094l-.006-.007h0L57.089.232a.752.752,0,0,0-.1-.082L56.958.13a.761.761,0,0,0-.082-.045L56.836.068A.743.743,0,0,0,56.73.035L56.71.029a.749.749,0,0,0-.133-.014h-.014L46.668,0a.747.747,0,0,0-.748.746l-.026,18.11a.747.747,0,0,0,.746.748l14.594.021a.747.747,0,0,0,.748-.746L62,5.437C62,5.431,62,5.427,62,5.421Zm-2.559-.735-2.13,0H57.3l0-2.126L58.552,3.8Zm1.066,1.5-.017,11.9v.053l-13.1-.019.024-16.617,8.365.012h.036l-.006,3.921a.747.747,0,0,0,.746.748l3.936.006h.015Z" transform="translate(-45.894 0)" fill="#fff"/>
</svg>
