<svg xmlns="http://www.w3.org/2000/svg" xmlns:xlink="http://www.w3.org/1999/xlink" width="20" height="35" viewBox="0 0 20 35">
  <defs>
    <clipPath id="clip-path">
      <rect id="icon-ok" width="20" height="35" transform="translate(0.052 -0.087)" fill="none"/>
    </clipPath>
  </defs>
  <g id="icon-ok-2" data-name="icon-ok" transform="translate(-0.052 0.087)" clip-path="url(#clip-path)">
    <g id="clear-icon" transform="translate(0 -0.627)">
      <g id="icon" transform="translate(0.941 5.957)">
        <path id="パス_53" data-name="パス 53" d="M91.482,35.718l-1.4-1.4a1.1,1.1,0,0,0-1.561,0l-7.357,7.4-.015.015-2.713-2.713a1.1,1.1,0,0,0-1.555,0L75.472,40.42a1.1,1.1,0,0,0,0,1.558l4.9,4.9a1.1,1.1,0,0,0,1.556,0l9.559-9.6a1.1,1.1,0,0,0,0-1.556ZM81.147,46.273a.178.178,0,0,1-.127-.052l-4.9-4.9a.179.179,0,0,1,0-.253l1.4-1.4a.179.179,0,0,1,.253,0L80.8,42.691a.486.486,0,0,0,.688,0l7.683-7.724a.179.179,0,0,1,.253,0l1.4,1.4a.179.179,0,0,1,0,.253l-9.556,9.6A.178.178,0,0,1,81.147,46.273Z" transform="translate(-72.284 -33.992)" fill="#fff"/>
        <path id="パス_54" data-name="パス 54" d="M16.545,50.272v-.009l-1.217,1.221v7.591a.289.289,0,0,1-.289.289H1.51a.29.29,0,0,1-.292-.289V45.546a.292.292,0,0,1,.292-.289H14.363l.765-.765.439-.434h0l.006-.006a1.07,1.07,0,0,0-.17-.012H1.148a1.125,1.125,0,0,0-.81.338A1.138,1.138,0,0,0,0,45.186V59.434a1.148,1.148,0,0,0,1.147,1.15H15.4a1.166,1.166,0,0,0,.813-.335,1.142,1.142,0,0,0,.335-.815v-5.37l0-3.8Z" transform="translate(0 -43.656)" fill="#fff"/>
      </g>
      <path id="パス_67" data-name="パス 67" d="M-3.375-6.682a3.861,3.861,0,0,1-.309,1.6,2.338,2.338,0,0,1-.875,1.044,2.406,2.406,0,0,1-1.32.36,2.386,2.386,0,0,1-1.307-.362,2.394,2.394,0,0,1-.885-1.033,3.7,3.7,0,0,1-.324-1.554v-.45a3.815,3.815,0,0,1,.313-1.59A2.385,2.385,0,0,1-7.2-9.723a2.375,2.375,0,0,1,1.31-.367,2.42,2.42,0,0,1,1.322.362,2.334,2.334,0,0,1,.881,1.05,3.88,3.88,0,0,1,.309,1.6Zm-.819-.4a2.8,2.8,0,0,0-.446-1.7,1.471,1.471,0,0,0-1.247-.594,1.455,1.455,0,0,0-1.228.594,2.741,2.741,0,0,0-.461,1.648v.459a2.8,2.8,0,0,0,.452,1.691,1.461,1.461,0,0,0,1.245.615,1.455,1.455,0,0,0,1.235-.581,2.787,2.787,0,0,0,.45-1.665Zm3.639.42-.763.793v2.109H-2.14V-10h.823v3.086L1.457-10h.995L-.005-7.248,2.644-3.763H1.658Z" transform="translate(12.223 36.881)" fill="#e7f6f2"/>
      <path id="パス_65" data-name="パス 65" d="M0,6.271V0" transform="translate(5.017 0)" fill="none"/>
      <path id="パス_66" data-name="パス 66" d="M1.254,0H0" transform="translate(0 15.991)" fill="none"/>
    </g>
  </g>
</svg>
