<svg xmlns="http://www.w3.org/2000/svg" xmlns:xlink="http://www.w3.org/1999/xlink" width="20" height="35" viewBox="0 0 20 35">
  <defs>
    <clipPath id="clip-path">
      <rect id="icon-miss" width="20" height="35" fill="none"/>
    </clipPath>
  </defs>
  <g id="icon-miss-2" data-name="icon-miss" clip-path="url(#clip-path)">
    <g id="not-icon" transform="translate(1.295 0.059)">
      <g id="icon" transform="translate(0.548 5.961)">
        <path id="パス_54" data-name="パス 54" d="M16.314,50.185V45.239h-1.2V58.864a.285.285,0,0,1-.285.285H1.488a.285.285,0,0,1-.288-.285V45.524a.288.288,0,0,1,.288-.285H15.113l.062-1.191L1.131,44.039a1.109,1.109,0,0,0-.8.333,1.123,1.123,0,0,0-.333.8V59.219a1.132,1.132,0,0,0,1.131,1.134H15.182a1.149,1.149,0,0,0,.8-.33,1.126,1.126,0,0,0,.33-.8Z" transform="translate(0 -44.039)" fill="#fff"/>
        <path id="パス_54-2" data-name="パス 54" d="M2.414,6.9l-.947-.364a.279.279,0,0,1-.267-.3V5.316H0L0,6.594A1.132,1.132,0,0,0,1.131,7.727l1.282-.376Z" transform="translate(16.314 7.736) rotate(180)" fill="#fff"/>
        <path id="パス_55" data-name="パス 55" d="M9.5,9.5l7.524,7.524" transform="translate(-4.986 -4.986)" fill="none" stroke="#fff" stroke-linecap="round" stroke-width="1.5"/>
        <path id="パス_56" data-name="パス 56" d="M0,0,7.524,7.524" transform="translate(12.038 4.514) rotate(90)" fill="none" stroke="#fff" stroke-linecap="round" stroke-width="1.5"/>
      </g>
      <path id="パス_68" data-name="パス 68" d="M-12.81-10l2.042,5.1L-8.726-10h1.068v6.245h-.824V-6.191L-8.4-8.816l-2.05,5.057h-.631L-13.132-8.8l.081,2.612v2.432h-.824V-10Zm7.343,6.245H-6.26V-8.4h.794Zm-.858-5.872a.474.474,0,0,1,.118-.326.443.443,0,0,1,.35-.133.45.45,0,0,1,.352.133.469.469,0,0,1,.12.326.453.453,0,0,1-.12.322.458.458,0,0,1-.352.129.451.451,0,0,1-.35-.129A.458.458,0,0,1-6.325-9.631Zm4.83,4.641a.584.584,0,0,0-.242-.5A2.333,2.333,0,0,0-2.582-5.8a4,4,0,0,1-.956-.309,1.361,1.361,0,0,1-.523-.429,1.026,1.026,0,0,1-.169-.592,1.2,1.2,0,0,1,.483-.965,1.884,1.884,0,0,1,1.233-.395,1.939,1.939,0,0,1,1.28.407A1.294,1.294,0,0,1-.744-7.036h-.8A.716.716,0,0,0-1.819-7.6a1.037,1.037,0,0,0-.7-.236,1.085,1.085,0,0,0-.678.189.594.594,0,0,0-.244.493.481.481,0,0,0,.227.433,2.8,2.8,0,0,0,.821.279,4.28,4.28,0,0,1,.963.317,1.4,1.4,0,0,1,.547.444A1.092,1.092,0,0,1-.7-5.046a1.188,1.188,0,0,1-.5,1,2.087,2.087,0,0,1-1.291.375,2.337,2.337,0,0,1-.987-.2,1.6,1.6,0,0,1-.671-.551,1.328,1.328,0,0,1-.242-.766H-3.6a.822.822,0,0,0,.32.633,1.24,1.24,0,0,0,.787.234A1.28,1.28,0,0,0-1.767-4.5.56.56,0,0,0-1.495-4.99Zm4.529,0a.584.584,0,0,0-.242-.5A2.333,2.333,0,0,0,1.947-5.8a4,4,0,0,1-.956-.309,1.361,1.361,0,0,1-.523-.429A1.026,1.026,0,0,1,.3-7.126a1.2,1.2,0,0,1,.483-.965,1.884,1.884,0,0,1,1.233-.395,1.939,1.939,0,0,1,1.28.407,1.294,1.294,0,0,1,.491,1.042h-.8A.716.716,0,0,0,2.711-7.6a1.037,1.037,0,0,0-.7-.236,1.085,1.085,0,0,0-.678.189.594.594,0,0,0-.244.493.481.481,0,0,0,.227.433,2.8,2.8,0,0,0,.821.279,4.28,4.28,0,0,1,.963.317,1.4,1.4,0,0,1,.547.444,1.092,1.092,0,0,1,.178.633,1.188,1.188,0,0,1-.5,1,2.087,2.087,0,0,1-1.291.375,2.337,2.337,0,0,1-.987-.2,1.6,1.6,0,0,1-.671-.551,1.328,1.328,0,0,1-.242-.766H.933a.822.822,0,0,0,.32.633,1.24,1.24,0,0,0,.787.234A1.28,1.28,0,0,0,2.762-4.5.56.56,0,0,0,3.035-4.99Z" transform="translate(13.874 36.7)" fill="#e7f6f2"/>
      <path id="パス_64" data-name="パス 64" d="M0,6.275V0" transform="translate(4.627)" fill="none"/>
    </g>
  </g>
</svg>
