<svg xmlns="http://www.w3.org/2000/svg" width="32" height="47" viewBox="0 0 32 47">
  <g id="not-icon" transform="translate(1.919 -0.685)">
    <g id="icon" transform="translate(1)">
      <path id="パス_54" data-name="パス 54" d="M26,53.833V45.952H24.087V67.667a.454.454,0,0,1-.454.454H2.372a.455.455,0,0,1-.459-.454V46.406a.458.458,0,0,1,.459-.454H24.087l.1-1.9L1.8,44.039a1.768,1.768,0,0,0-1.272.531A1.789,1.789,0,0,0,0,45.842V68.231a1.8,1.8,0,0,0,1.8,1.808H24.2a1.832,1.832,0,0,0,1.277-.526A1.8,1.8,0,0,0,26,68.231Z" transform="translate(0.081 -43.354)" fill="#fff"/>
      <path id="パス_54-2" data-name="パス 54" d="M3.847,11l-1.509-.58a.444.444,0,0,1-.425-.473V8.473H.005L0,10.51a1.8,1.8,0,0,0,1.8,1.806l2.044-.6Z" transform="translate(26.081 13.014) rotate(180)" fill="#fff"/>
      <path id="パス_55" data-name="パス 55" d="M9.5,9.5,21.491,21.491" transform="translate(-2.225 -1.621)" fill="none" stroke="#fff" stroke-linecap="round" stroke-width="3"/>
      <path id="パス_56" data-name="パス 56" d="M0,0,11.991,11.991" transform="translate(19.267 7.879) rotate(90)" fill="none" stroke="#fff" stroke-linecap="round" stroke-width="3"/>
    </g>
    <text id="Miss" transform="translate(14.081 43.685)" fill="#e7f6f2" font-size="14" font-family="Roboto-Regular, Roboto"><tspan x="-15.029" y="0">Miss</tspan></text>
  </g>
</svg>
