<svg id="edit-icon" xmlns="http://www.w3.org/2000/svg" width="19.079" height="19.079" viewBox="0 0 19.079 19.079">
  <path id="パス_42" data-name="パス 42" d="M16.947,64.4v-.008l-2.3,2.3v6.014a.068.068,0,0,1-.06.06H8.326l-5.98-.006-.013-.006c-.011,0-.023-.014-.034-.049V60.449a.063.063,0,0,1,.06-.06H8.439l1.344-1.347.953-.95h-.006l.006-.006H2.358A2.362,2.362,0,0,0,0,60.449V72.708a2.339,2.339,0,0,0,.575,1.54c.029.035.064.063.094.1l.052.053c.03.029.056.063.089.09a2.339,2.339,0,0,0,1.548.584H14.589a2.363,2.363,0,0,0,2.358-2.363V67.839l0-3.444Z" transform="translate(0 -55.992)" fill="#fff"/>
  <path id="パス_43" data-name="パス 43" d="M125.775,3.58,122.943.748A.769.769,0,0,0,122.4.519a.714.714,0,0,0-.51.209L112.955,9.66l-1.5,4.8a.479.479,0,0,0,.123.482.487.487,0,0,0,.342.145.474.474,0,0,0,.141-.021l4.8-1.5,8.932-8.932A.748.748,0,0,0,125.775,3.58Zm-8.6,8.216a1.24,1.24,0,0,0-.242-.413l6.133-6.133.329.329-4.342,4.342Zm-.825.829-.034.034-2.876.9-.472-.473.9-2.876.034-.034.4-.021a.365.365,0,0,1,.384.384,1.243,1.243,0,0,0,1.306,1.306.366.366,0,0,1,.385.384Zm-1.622-3.278,6.218-6.218.329.329L115.14,9.591a1.244,1.244,0,0,0-.353-.215C114.766,9.367,114.747,9.356,114.726,9.347Zm1.213,1.622a.366.366,0,0,1-.385-.385,1.241,1.241,0,0,0-.053-.428l6.235-6.235.865.865-6.235,6.235A1.232,1.232,0,0,0,115.938,10.969Zm5.468-8.3,1-1,2.45,2.45-1,1Z" transform="translate(-106.924 -0.519)" fill="#fff"/>
</svg>
