<svg xmlns="http://www.w3.org/2000/svg" xmlns:xlink="http://www.w3.org/1999/xlink" width="20" height="35" viewBox="0 0 20 35">
  <defs>
    <clipPath id="clip-path">
      <rect id="icon-next" width="20" height="35" fill="none"/>
    </clipPath>
  </defs>
  <g id="icon-next-2" data-name="icon-next" clip-path="url(#clip-path)">
    <g id="next-icon" transform="translate(1.941 -0.569)">
      <path id="パス_69" data-name="パス 69" d="M5.955-3.708H5.127L1.983-8.521v4.812H1.155V-9.953h.828L5.136-5.119V-9.953h.819Zm3.264.086a2.028,2.028,0,0,1-1.536-.62A2.3,2.3,0,0,1,7.092-5.9v-.146a2.785,2.785,0,0,1,.264-1.233,2.058,2.058,0,0,1,.738-.849A1.855,1.855,0,0,1,9.12-8.435a1.738,1.738,0,0,1,1.407.6,2.581,2.581,0,0,1,.5,1.707v.33H7.885a1.65,1.65,0,0,0,.4,1.109,1.261,1.261,0,0,0,.976.422,1.382,1.382,0,0,0,.712-.172,1.789,1.789,0,0,0,.51-.455l.485.377A1.949,1.949,0,0,1,9.219-3.622Zm-.1-4.161a1.058,1.058,0,0,0-.806.35,1.7,1.7,0,0,0-.4.98h2.325v-.06A1.511,1.511,0,0,0,9.91-7.45,1,1,0,0,0,9.12-7.783ZM13.5-6.655l1.029-1.694h.926L13.941-6.054l1.566,2.346h-.918L13.517-5.445,12.444-3.708h-.922l1.566-2.346L11.569-8.349h.918Zm3.873-2.818v1.124h.866v.613h-.866v2.882a.644.644,0,0,0,.116.419.487.487,0,0,0,.395.14,1.921,1.921,0,0,0,.377-.051v.64a2.314,2.314,0,0,1-.609.085.988.988,0,0,1-.8-.322,1.382,1.382,0,0,1-.27-.914V-7.736h-.845v-.613h.845V-9.473Z" transform="translate(-1.155 36.984)" fill="#e7f6f2"/>
      <g id="next" transform="translate(0.53 5.961)">
        <g id="icon" transform="translate(0 0)">
          <path id="パス_58" data-name="パス 58" d="M121.883,131.773h-2.129l-.409,0,0,0h-.007l1.755,1.837,1.192,1.253h-5.945v1.876h3.54l2.406,0-1.749,1.827-1.2,1.251h0l0,.005h2.543l3.853-4.027Z" transform="translate(-112.579 -127.378)" fill="#fff"/>
          <path id="パス_59" data-name="パス 59" d="M16.314,50.185V45.239h-1.2V58.864a.285.285,0,0,1-.285.285H1.488a.285.285,0,0,1-.288-.285V45.524a.288.288,0,0,1,.288-.285H15.113l.062-1.191L1.131,44.039a1.109,1.109,0,0,0-.8.333,1.123,1.123,0,0,0-.333.8V59.219a1.132,1.132,0,0,0,1.131,1.134H15.182a1.149,1.149,0,0,0,.8-.33,1.126,1.126,0,0,0,.33-.8Z" transform="translate(0 -44.039)" fill="#fff"/>
          <path id="パス_60" data-name="パス 60" d="M2.414,6.9l-.947-.364a.279.279,0,0,1-.267-.3V5.316H0L0,6.594A1.132,1.132,0,0,0,1.131,7.727l1.282-.376Z" transform="translate(16.314 7.736) rotate(180)" fill="#fff"/>
        </g>
      </g>
      <line id="線_10" data-name="線 10" y1="6.275" transform="translate(3.354)" fill="none"/>
    </g>
  </g>
</svg>
